<svg xmlns="http://www.w3.org/2000/svg" viewBox="0 0 22 22" fill="none">
  <path fill="#0266c1"
    d="M21.687 14.51c.683-2.14.12-4.57-.477-6.253a.391.391 0 0 0-.058-.183c-.203-.547-.39-.996-.551-1.32a.781.781 0 0 0 .492-.72V2.782A.781.781 0 0 0 20.312 2h-9.597a.39.39 0 0 0-.39.414c.132 2.344-.04 3.933-.536 5.054a.35.35 0 0 0-.027.036.392.392 0 0 0 0 .058c-.19.408-.446.782-.758 1.106l-.035.023v.027a5.637 5.637 0 0 1-1.563 1.055c-1.004.445-2.034.829-3.085 1.148l-.2.067C.47 12.198-.006 14.394.002 15.495a.376.376 0 0 0 0 .047v2.789a.39.39 0 0 0 .187.332c.895.544 1.861.962 2.871 1.242a.39.39 0 0 0 .496-.39v-.09h.574v.39a.39.39 0 0 0 .328.39c.34.056.68.099 1.012.126a.39.39 0 0 0 .422-.39v-.493h.574v.555c0 .215.175.39.39.39.329 0 .657 0 1.008-.047a.39.39 0 0 0 .36-.39v-.508h.574v.344a.39.39 0 0 0 .453.39c.717-.11 1.424-.278 2.113-.503l.063-.028c2.734-1.562 4.468-.277 4.538-.223a.39.39 0 0 0 .239.083h.484a.39.39 0 0 0 .39-.391v-.66h.56v.652c0 .216.174.39.39.39h1.258a.39.39 0 0 0 .39-.39v-.652h.578v.652c0 .216.175.39.39.39h.966a.39.39 0 0 0 .39-.39v-4.21a.39.39 0 0 0-.312-.391ZM12.417 2.79h7.875v3.234h-7.874V2.79Zm-4.909 7.789.004.023c.32.26.616.549.883.863a.738.738 0 0 0-.106.39.746.746 0 1 0 .813-.737 6.02 6.02 0 0 0-.84-.926c.349-.199.677-.432.98-.695.38.355.732.737 1.055 1.144a.746.746 0 1 0 .7-.5h-.095a11.436 11.436 0 0 0-1.117-1.215c.186-.229.351-.475.492-.734.605.315 1.19.667 1.75 1.055a.754.754 0 1 0 .418-.668c-.59-.4-1.204-.763-1.84-1.086.426-1.133.61-2.637.524-4.687h.512v3.234c0 .431.35.781.78.781h7.32c.102.207.274.566.462 1.035h-.16a4.297 4.297 0 0 0-2.532 7.746c-3.16.832-7.913 1.82-11.913 1.562.738-2.949-.145-4.765-.719-5.562a26.008 26.008 0 0 0 2.63-1.023Zm-3.414 1.246c.422.496 1.524 2.164.715 5.23a9.813 9.813 0 0 1-4.008-1.211 2.479 2.479 0 0 1-.027-.27v-.027c-.031-.832.281-2.633 3.32-3.722Zm16.94 6.897v-.652a.39.39 0 0 0-.39-.39h-1.355a.39.39 0 0 0-.391.39v.652h-.48v-.652a.39.39 0 0 0-.391-.39h-1.348a.39.39 0 0 0-.39.39v.637c-.532-.332-2.473-1.297-5.227.242-.49.162-.99.292-1.495.39v-.269a.39.39 0 0 0-.391-.39H7.828a.39.39 0 0 0-.39.39v.535h-.2v-.546a.39.39 0 0 0-.39-.391H5.493a.39.39 0 0 0-.391.39v.465l-.2-.027v-.438a.39.39 0 0 0-.39-.39H3.157a.39.39 0 0 0-.39.344 10.527 10.527 0 0 1-1.993-.895v-1.398c1.703.902 3.906 1.242 6.25 1.242 6.226 0 13.35-2.383 14.19-2.668l.004 3.43h-.183Zm-.19-4.12c-.333.11-1.15.39-2.278.691a3.515 3.515 0 0 1 1.937-6.656l.004.012c.574 1.656 1.09 4.02.336 5.953Z" />
  <path fill="#0266c1"
    d="M13.922 3.262a1.137 1.137 0 1 0 0 2.273 1.137 1.137 0 0 0 0-2.273Zm0 1.492a.355.355 0 1 1 0-.711.355.355 0 0 1 0 .71Z" />
</svg>
