<svg xmlns="http://www.w3.org/2000/svg" viewBox="0 0 22 22" fill="none">
  <path fill="#2D383F"
    d="M21.54 19.607V5.897a.407.407 0 0 0-.53-.407v.02l-1.834.575a5.503 5.503 0 0 0 .339-1.602 4.483 4.483 0 0 0-8.966 0c.028.522.134 1.037.313 1.528L7.83 4.927a.434.434 0 0 0-.106 0h-.032a.408.408 0 0 0-.143.029L1.261 7.4A.408.408 0 0 0 1 7.743V21.47a.407.407 0 0 0 .554.38l6.146-2.38 7.01 2.51a.408.408 0 0 0 .26 0l6.285-1.965a.408.408 0 0 0 .285-.407ZM15.032.815a3.668 3.668 0 0 1 3.667 3.668c0 1.593-2.392 5.995-3.667 8.15-1.276-2.171-3.668-6.577-3.668-8.15A3.668 3.668 0 0 1 15.032.815Zm5.705 18.51-5.485 1.716v-3.11a.408.408 0 0 0-.816 0v3.082l-6.333-2.266v-2.608a.408.408 0 0 0-.815 0v2.608l-5.473 2.131v-6.3l2.013-.815a.408.408 0 1 0-.301-.754l-1.712.688V8.024l5.473-2.119v1.223a.408.408 0 0 0 .815 0v-1.24L11.23 7.01a56.588 56.588 0 0 0 3.452 6.65.408.408 0 0 0 .697 0 56.834 56.834 0 0 0 3.44-6.61l1.907-.599.012 6.68-2.066.501a.41.41 0 0 0 .098.815.4.4 0 0 0 .097 0l1.871-.456v5.335Z" />
  <path fill="#2D383F"
    d="M15.016 2.115a2.368 2.368 0 1 0 0 4.735 2.368 2.368 0 0 0 0-4.735Zm0 3.92a1.557 1.557 0 0 1-1.537-1.552h-.016a1.553 1.553 0 1 1 1.553 1.552ZM9.685 12.292v.012l-1.973-.852a.407.407 0 0 0-.314 0l-1.666.673a.409.409 0 0 0 .305.758l1.508-.607 1.814.766a.406.406 0 0 0 .163.032.408.408 0 0 0 .163-.782ZM16.348 14.622a.408.408 0 0 0-.46-.28l.004-.034-1.01.245-1.712-.742a.409.409 0 0 0-.326.75l1.834.815a.41.41 0 0 0 .162.033h.098l1.141-.277a.408.408 0 0 0 .27-.51Z" />
</svg>
