<svg viewBox="0 0 22 22" fill="none" xmlns="http://www.w3.org/2000/svg">
  <g clip-path="url(#clip0_6421_1016)">
    <rect width="22" height="22" fill="white" />
    <path
      d="M21.2694 19.6067V5.89708C21.2799 5.67222 21.1061 5.4815 20.8813 5.47105C20.8333 5.46881 20.7854 5.47508 20.7396 5.48954V5.50992L18.9057 6.08455C19.0977 5.57054 19.2117 5.03066 19.244 4.48292C19.244 2.00708 17.2369 0 14.761 0C12.2852 0 10.2781 2.00708 10.2781 4.48292C10.3067 5.00503 10.4125 5.52006 10.5919 6.01119L7.55984 4.92714C7.52464 4.92281 7.48908 4.92281 7.45388 4.92714H7.42127C7.37242 4.92801 7.32408 4.93769 7.27864 4.95567L0.990317 7.4009C0.845284 7.45607 0.744164 7.58878 0.729492 7.74323V14.2965V21.4691C0.730154 21.6942 0.913139 21.8761 1.13825 21.8754C1.18802 21.8753 1.23734 21.866 1.28374 21.8481L7.42942 19.4681L14.4391 21.9786C14.5237 22.0071 14.6153 22.0071 14.6999 21.9786L20.9842 20.0142C21.1607 19.9589 21.2779 19.7915 21.2694 19.6067ZM14.761 0.815077C16.7868 0.815077 18.4289 2.4572 18.4289 4.48292C18.4289 6.0764 16.0366 10.4778 14.761 12.6337C13.4854 10.4615 11.0932 6.05602 11.0932 4.48292C11.0932 2.4572 12.7353 0.815077 14.761 0.815077ZM20.4666 19.3255L14.9811 21.0412V17.9317C14.9811 17.7066 14.7986 17.5242 14.5736 17.5242C14.3485 17.5242 14.166 17.7066 14.166 17.9317V21.0127L7.83289 18.7468V16.1385C7.83289 15.9135 7.65041 15.731 7.42535 15.731C7.20029 15.731 7.01781 15.9135 7.01781 16.1385V18.7468L1.54457 20.8782V14.5777L3.55781 13.7626C3.77324 13.6974 3.895 13.4699 3.82979 13.2544C3.76458 13.039 3.53708 12.9172 3.32164 12.9824C3.29912 12.9893 3.27722 12.998 3.25618 13.0086L1.54452 13.6974V8.02443L7.01776 5.90523V7.12785C7.01776 7.35291 7.20024 7.53539 7.4253 7.53539C7.65036 7.53539 7.83284 7.35291 7.83284 7.12785V5.88893L10.9587 7.00966C11.9611 9.30049 13.1142 11.5224 14.4105 13.6607C14.5272 13.8532 14.7779 13.9145 14.9703 13.7978C15.0264 13.7638 15.0734 13.7167 15.1074 13.6607C16.3973 11.5349 17.5463 9.32672 18.547 7.05042L20.4543 6.45133L20.4665 13.1309L18.4003 13.6322C18.1752 13.6592 18.0147 13.8635 18.0417 14.0886C18.0687 14.3137 18.2731 14.4742 18.4981 14.4472C18.5306 14.4512 18.5634 14.4512 18.5959 14.4472L20.4665 13.9908V19.3255H20.4666Z"
      fill="#2D383F" />
    <path
      d="M14.7452 2.11523C13.4376 2.11523 12.3774 3.17534 12.3774 4.48303C12.3774 5.79072 13.4376 6.85083 14.7452 6.85083C16.052 6.84859 17.1108 5.78981 17.113 4.48303C17.113 3.17534 16.0529 2.11523 14.7452 2.11523ZM14.7452 6.03576C13.895 6.02465 13.211 5.33336 13.2088 4.48303H13.1925C13.1925 3.62547 13.8877 2.93031 14.7452 2.93031C15.6028 2.93031 16.298 3.62547 16.298 4.48303C16.298 5.3406 15.6028 6.03576 14.7452 6.03576Z"
      fill="#2D383F" />
    <path
      d="M9.41415 12.2913V12.3036L7.44166 11.4518C7.34125 11.4099 7.22826 11.4099 7.12786 11.4518L5.46103 12.1243C5.2517 12.2087 5.15043 12.4468 5.23484 12.6561C5.31925 12.8654 5.55736 12.9667 5.76668 12.8823L7.27457 12.275L9.08812 13.0412C9.13962 13.0632 9.19515 13.0743 9.25113 13.0738C9.47619 13.0757 9.66015 12.8947 9.66198 12.6696C9.66331 12.505 9.56555 12.3558 9.41415 12.2913Z"
      fill="#2D383F" />
    <path
      d="M16.0769 14.6225C16.0161 14.4261 15.8187 14.3058 15.6164 14.3416L15.6205 14.309L14.6098 14.5536L12.8981 13.8118C12.691 13.7218 12.4502 13.8167 12.3602 14.0238C12.2702 14.2308 12.365 14.4717 12.5721 14.5617L14.406 15.3768C14.4575 15.3987 14.513 15.4098 14.569 15.4094H14.6668L15.8079 15.1323C16.023 15.0657 16.1433 14.8375 16.0769 14.6225Z"
      fill="#2D383F" />
  </g>
  <defs>
    <clipPath id="clip0_6421_1016">
      <rect width="22" height="22" fill="white" />
    </clipPath>
  </defs>
</svg>
