<svg viewBox="0 0 22 22" fill="none" xmlns="http://www.w3.org/2000/svg">
  <g clip-path="url(#clip0_6421_1040)">
    <rect width="22" height="22" fill="white" />
    <path
      d="M20.6055 21.2856L17.0498 13.0155L13.6913 5.19875C13.6005 4.98543 13.3539 4.8862 13.1406 4.97704C13.0409 5.01954 12.9614 5.09899 12.9189 5.19875L9.92151 12.1549L8.74606 14.8878L6.16847 8.93919C6.07758 8.72588 5.831 8.62665 5.61774 8.71748C5.51799 8.75999 5.43854 8.83944 5.39603 8.93919L2.97377 14.5352L0.0351443 21.2814C-0.0575797 21.4939 0.0394998 21.7414 0.251973 21.8341C0.305393 21.8574 0.363063 21.8693 0.421363 21.8691H20.2193C20.4511 21.8689 20.6389 21.6808 20.6387 21.449C20.6387 21.3929 20.6274 21.3373 20.6055 21.2856ZM13.3009 6.42037L16.0255 12.7552H15.0683L13.3387 10.8451C13.1828 10.6735 12.9173 10.6609 12.7457 10.8168C12.7188 10.8413 12.6952 10.8691 12.6754 10.8997L12.0289 11.8988H10.9458L13.3009 6.42037ZM5.78225 10.1482L7.93584 15.1271H6.76039C6.61766 15.1274 6.48484 15.2001 6.40776 15.3202L5.98795 15.9877L4.90486 14.4596C4.82657 14.3467 4.698 14.2793 4.56062 14.2791H4.00229L5.78225 10.1482ZM1.08045 21.0295L3.63706 15.1187H4.34233L5.65211 16.9868C5.73041 17.0997 5.85897 17.1671 5.99635 17.1673C6.13609 17.1643 6.26513 17.0919 6.34059 16.9742L6.98709 15.9751H8.29687L10.484 21.0127L1.08045 21.0295ZM11.4034 21.0295L9.20365 15.9499L10.5848 12.7384H12.264C12.4067 12.7381 12.5396 12.6654 12.6166 12.5453L13.0826 11.8274L14.5687 13.4689C14.6481 13.5568 14.7609 13.6071 14.8794 13.6074H16.3823L19.577 21.0421L11.4034 21.0295Z"
      fill="#2D383F" />
    <path
      d="M6.69806 1.83177C6.30203 0.811597 5.15392 0.305681 4.1338 0.701766C3.37421 0.996625 2.8726 1.72645 2.86945 2.54124C2.86531 2.61397 2.86531 2.68681 2.86945 2.75954C1.87693 3.22048 1.44606 4.39876 1.907 5.39128C2.22621 6.07855 2.90944 6.5236 3.66708 6.53777L3.68807 6.55456H6.62669C7.93086 6.57429 9.00404 5.53302 9.02377 4.22885C9.04345 2.92468 8.00223 1.8515 6.69806 1.83177ZM6.65188 5.72755H3.71326C3.08492 5.79246 2.52296 5.33576 2.45805 4.70742C2.39313 4.07908 2.84983 3.51712 3.47817 3.45221C3.70544 3.4064 3.85258 3.18506 3.80677 2.95774C3.80325 2.94037 3.79869 2.92321 3.79302 2.90647C3.75204 2.78903 3.73078 2.66561 3.73005 2.54124C3.72648 1.91059 4.23476 1.39649 4.86541 1.39287C5.42327 1.38967 5.90174 1.79005 5.99699 2.33973C6.03556 2.56044 6.24068 2.71194 6.46297 2.68397C6.52589 2.67983 6.58896 2.67983 6.65188 2.68397C7.49233 2.68397 8.17367 3.36531 8.17367 4.20576C8.17367 5.0462 7.49233 5.72755 6.65188 5.72755Z"
      fill="#2D383F" />
    <path
      d="M20.8528 2.32249C20.857 2.24976 20.857 2.17693 20.8528 2.1042C20.8486 1.00987 19.958 0.126188 18.8637 0.130386C18.0549 0.133535 17.3303 0.628168 17.0313 1.37851C15.7337 1.4057 14.6999 2.47556 14.7195 3.77501C14.7392 5.07919 15.8124 6.12045 17.1166 6.10072H20.0552C21.1494 6.08026 22.0198 5.17674 21.9993 4.08257C21.9852 3.32493 21.5401 2.6417 20.8528 2.32249ZM21.1691 4.35319C21.0579 4.87458 20.6009 5.24968 20.0678 5.25692H17.1292C16.2887 5.25692 15.6074 4.57558 15.6074 3.73513C15.6074 2.89469 16.2887 2.21335 17.1292 2.21335C17.1921 2.2092 17.2552 2.2092 17.3181 2.21335C17.5305 2.23538 17.7256 2.09449 17.7715 1.8859C17.8767 1.26412 18.466 0.845364 19.0879 0.950577C19.7097 1.05579 20.1284 1.64514 20.0232 2.26697C20.0125 2.3301 19.9965 2.39223 19.9755 2.45269C19.9013 2.67235 20.0193 2.91053 20.239 2.98468C20.2558 2.99035 20.2729 2.99497 20.2903 2.99843C20.9071 3.12983 21.3005 3.73639 21.1691 4.35319Z"
      fill="#2D383F" />
  </g>
  <defs>
    <clipPath id="clip0_6421_1040">
      <rect width="22" height="22" fill="white" />
    </clipPath>
  </defs>
</svg>
