<svg xmlns="http://www.w3.org/2000/svg" viewBox="0 0 22 22" fill="none">
  <path fill="#2D383F"
    d="m20.605 21.155-3.555-8.27-3.359-7.817a.42.42 0 0 0-.772 0l-2.997 6.957-1.176 2.732L6.168 8.81a.42.42 0 0 0-.772 0l-2.422 5.596L.035 21.15a.42.42 0 0 0 .386.588H20.22a.42.42 0 0 0 .386-.584ZM13.301 6.29l2.725 6.335h-.958l-1.73-1.91a.42.42 0 0 0-.663.054l-.646 1h-1.083L13.3 6.29Zm-7.519 3.728 2.154 4.979H6.76a.42.42 0 0 0-.352.193l-.42.667-1.083-1.528a.42.42 0 0 0-.344-.18h-.559l1.78-4.131ZM1.08 20.899l2.557-5.91h.705l1.31 1.867a.42.42 0 0 0 .344.181.42.42 0 0 0 .345-.193l.646-1h1.31l2.187 5.038-9.404.017Zm10.323 0-2.2-5.08 1.382-3.211h1.679a.42.42 0 0 0 .353-.193l.466-.718 1.486 1.642a.42.42 0 0 0 .31.138h1.503l3.195 7.435-8.174-.013ZM6.698 1.701a1.981 1.981 0 0 0-3.829.71 1.92 1.92 0 0 0 0 .218 1.981 1.981 0 0 0 .798 3.778l.021.017h2.939a2.362 2.362 0 1 0 .071-4.723Zm-.046 3.896H3.713a1.144 1.144 0 1 1-.235-2.275.42.42 0 0 0 .315-.546 1.142 1.142 0 1 1 2.204-.567.42.42 0 0 0 .466.345c.063-.005.126-.005.189 0a1.522 1.522 0 0 1 0 3.043ZM20.853 2.192a1.892 1.892 0 0 0 0-.218 1.981 1.981 0 0 0-3.822-.726 2.362 2.362 0 0 0 .086 4.722h2.938a1.981 1.981 0 0 0 .798-3.778Zm.316 2.03a1.142 1.142 0 0 1-1.101.905h-2.939a1.522 1.522 0 1 1 0-3.044c.063-.004.126-.004.19 0a.42.42 0 0 0 .453-.327 1.142 1.142 0 1 1 2.204.566.42.42 0 0 0 .314.546c.617.131 1.01.738.88 1.355Z" />
  <defs>
    <clipPath id="a">
      <path fill="#fff" d="M0 0h22v22H0z" />
    </clipPath>
  </defs>
</svg>
