<svg viewBox="0 0 33 30" fill="none" xmlns="http://www.w3.org/2000/svg">
  <path
    d="M16.2231 9.42035C17.1951 9.42035 17.9855 10.1874 17.9855 11.1305C17.9855 12.0708 17.1951 12.8378 16.2231 12.8378C15.2512 12.8378 14.4608 12.0708 14.4608 11.1305C14.4608 10.1874 15.2512 9.42035 16.2231 9.42035ZM16.2231 15.2582C18.571 15.2582 20.4797 13.406 20.4797 11.1305C20.4797 8.85219 18.571 7 16.2231 7C13.8753 7 11.9695 8.85219 11.9695 11.1305C11.9695 13.406 13.8753 15.2582 16.2231 15.2582ZM17.9445 18.6273C18.811 18.4342 19.6453 18.1018 20.4153 17.6331C20.9978 17.278 21.1735 16.5308 20.8075 15.9655C20.4387 15.3974 19.6717 15.2269 19.0862 15.5848C17.3444 16.6473 15.1019 16.6473 13.3572 15.5848C12.7746 15.2269 12.0047 15.3974 11.6387 15.9655C11.2728 16.5308 11.4485 17.278 12.031 17.6331C12.8009 18.1018 13.6353 18.4342 14.5018 18.6273L12.1218 20.934C11.6358 21.4056 11.6358 22.1726 12.1218 22.6442C12.3677 22.88 12.6838 22.9993 13.0029 22.9993C13.322 22.9993 13.6411 22.88 13.887 22.6442L16.2231 20.3772L18.5622 22.6442C19.0481 23.1186 19.8356 23.1186 20.3245 22.6442C20.8105 22.1726 20.8105 21.4056 20.3245 20.934L17.9445 18.6273Z"
    fill="#2D383F" />
</svg>
