<svg xmlns="http://www.w3.org/2000/svg" viewBox="0 0 30 30" fill="none">
  <path fill="#2D383F"
    d="M14.5 9.42c.916 0 1.66.767 1.66 1.71 0 .94-.744 1.708-1.66 1.708-.916 0-1.66-.767-1.66-1.707 0-.944.744-1.71 1.66-1.71Zm0 5.838c2.212 0 4.011-1.852 4.011-4.127C18.511 8.851 16.712 7 14.5 7s-4.008 1.852-4.008 4.13c0 2.276 1.796 4.128 4.008 4.128Zm1.622 3.37a7.442 7.442 0 0 0 2.328-.995 1.231 1.231 0 0 0 .37-1.667 1.154 1.154 0 0 0-1.622-.381 4.97 4.97 0 0 1-5.399 0 1.15 1.15 0 0 0-1.619.38 1.231 1.231 0 0 0 .37 1.668 7.442 7.442 0 0 0 2.328.994l-2.243 2.307a1.236 1.236 0 0 0 0 1.71c.232.236.53.355.83.355.301 0 .602-.119.834-.355l2.201-2.267 2.204 2.267c.458.475 1.2.475 1.66 0a1.236 1.236 0 0 0 0-1.71l-2.242-2.307Z" />
</svg>
