<svg xmlns="http://www.w3.org/2000/svg" viewBox="0 0 30 30" fill="none">
  <path fill="#2D383F"
    d="M16.362 7c-.45 0-.87.244-1.14.596-.27.352-.42.78-.528 1.233-.173.727-.226 1.533-.239 2.26a7.032 7.032 0 0 0-3.353 1.11c-.385-.347-.849-.54-1.294-.535-.506.005-.987.24-1.344.72-.683.916-.604 2.416.187 3.308a4.815 4.815 0 0 0-.085.842C8.566 19.554 11.446 22 15 22c3.553 0 6.434-2.448 6.434-5.466 0-.285-.036-.567-.085-.842.791-.892.87-2.392.187-3.308-.357-.48-.838-.715-1.345-.72-.444-.005-.908.188-1.293.535a7.03 7.03 0 0 0-3.336-1.11c.017-.67.061-1.366.187-1.89.079-.33.172-.568.272-.699.1-.131.173-.185.34-.185.364 0 .411.126.63.432.111.154.239.346.443.534.204.187.506.35.834.35V8.314c-.091 0-.108-.002-.17-.062-.062-.059-.147-.195-.272-.37-.252-.351-.739-.883-1.464-.883Zm3.54.123c-.847 0-1.532.827-1.532 1.85 0 1.022.685 1.849 1.532 1.849s1.532-.827 1.532-1.85c0-1.022-.685-1.849-1.532-1.849Zm0 .658c.545 0 .987.534.987 1.192 0 .657-.442 1.191-.987 1.191-.544 0-.987-.534-.987-1.191 0-.658.443-1.192.987-1.192ZM15 12.116c3.015 0 5.566 2.027 5.566 4.418 0 2.394-2.551 4.418-5.566 4.418-3.015 0-5.566-2.024-5.566-4.418 0-2.391 2.551-4.418 5.566-4.418Zm-5.174.596c.15.003.308.044.46.124-.548.5-.982 1.076-1.278 1.726-.204-.509-.148-1.143.103-1.48a.863.863 0 0 1 .715-.37Zm10.348 0a.863.863 0 0 1 .715.37c.252.337.307.971.102 1.48a5.344 5.344 0 0 0-1.276-1.726c.151-.08.308-.121.46-.124Zm-7.353 1.644c-.544 0-.987.534-.987 1.192 0 .658.443 1.192.987 1.192.545 0 .988-.534.988-1.192 0-.658-.443-1.192-.988-1.192Zm4.358 0c-.545 0-.987.534-.987 1.192 0 .658.442 1.192.987 1.192.544 0 .987-.534.987-1.192 0-.658-.443-1.192-.987-1.192Zm-4.885 4.048c.346.866 1.419 1.706 2.706 1.706s2.377-.84 2.723-1.706c-.63.49-1.623.822-2.723.822-1.1 0-2.077-.331-2.706-.822Z" />
</svg>
