<svg viewBox="0 0 33 30" fill="none" xmlns="http://www.w3.org/2000/svg">
  <path
    d="M18.035 7C17.5586 7 17.1116 7.24401 16.8248 7.59589C16.5381 7.94777 16.38 8.37671 16.2649 8.82877C16.082 9.55565 16.0255 10.3622 16.012 11.089C14.6731 11.1789 13.4606 11.5796 12.4536 12.1986C12.0449 11.8519 11.5527 11.6592 11.0808 11.6644C10.5434 11.6695 10.0331 11.9033 9.65381 12.3836C8.92903 13.3005 9.01257 14.8005 9.8525 15.6918C9.80057 15.9666 9.76219 16.2491 9.76219 16.5342C9.76219 19.5548 12.8194 22 16.59 22C20.3607 22 23.4178 19.5522 23.4178 16.5342C23.4178 16.2491 23.3794 15.9666 23.3275 15.6918C24.1674 14.8005 24.251 13.3005 23.5262 12.3836C23.1469 11.9033 22.6366 11.6695 22.0992 11.6644C21.6273 11.6592 21.1351 11.8519 20.7264 12.1986C19.7239 11.5822 18.5182 11.1815 17.1861 11.089C17.2041 10.4187 17.2516 9.7226 17.3848 9.19863C17.4683 8.86986 17.5677 8.63099 17.6738 8.5C17.7799 8.36901 17.8567 8.31507 18.035 8.31507C18.4211 8.31507 18.4708 8.44092 18.7034 8.74658C18.8208 8.90068 18.9563 9.09332 19.173 9.28082C19.3898 9.46832 19.7104 9.63014 20.0581 9.63014V8.31507C19.961 8.31507 19.943 8.3125 19.8775 8.25342C19.812 8.19435 19.7217 8.05822 19.5885 7.88356C19.322 7.53168 18.805 7 18.035 7ZM21.7922 7.12329C20.8935 7.12329 20.1665 7.95034 20.1665 8.9726C20.1665 9.99486 20.8935 10.8219 21.7922 10.8219C22.6908 10.8219 23.4178 9.99486 23.4178 8.9726C23.4178 7.95034 22.6908 7.12329 21.7922 7.12329ZM21.7922 7.78082C22.3702 7.78082 22.8398 8.31507 22.8398 8.9726C22.8398 9.63014 22.3702 10.1644 21.7922 10.1644C21.2141 10.1644 20.7445 9.63014 20.7445 8.9726C20.7445 8.31507 21.2141 7.78082 21.7922 7.78082ZM16.59 12.1164C19.7894 12.1164 22.4966 14.143 22.4966 16.5342C22.4966 18.9281 19.7894 20.9521 16.59 20.9521C13.3906 20.9521 10.6834 18.9281 10.6834 16.5342C10.6834 14.143 13.3906 12.1164 16.59 12.1164ZM11.0988 12.7123C11.2592 12.7149 11.4262 12.756 11.5866 12.8356C11.0063 13.3365 10.5457 13.9118 10.2318 14.5616C10.0151 14.0531 10.0738 13.4187 10.3402 13.0822C10.5344 12.8356 10.8031 12.7098 11.0988 12.7123ZM22.0812 12.7123C22.3769 12.7098 22.6456 12.8356 22.8398 13.0822C23.1062 13.4187 23.1649 14.0531 22.9482 14.5616C22.6343 13.9118 22.1737 13.3365 21.5935 12.8356C21.7538 12.756 21.9209 12.7149 22.0812 12.7123ZM14.2779 14.3562C13.6999 14.3562 13.2303 14.8904 13.2303 15.5479C13.2303 16.2055 13.6999 16.7397 14.2779 16.7397C14.856 16.7397 15.3256 16.2055 15.3256 15.5479C15.3256 14.8904 14.856 14.3562 14.2779 14.3562ZM18.9021 14.3562C18.3241 14.3562 17.8544 14.8904 17.8544 15.5479C17.8544 16.2055 18.3241 16.7397 18.9021 16.7397C19.4801 16.7397 19.9497 16.2055 19.9497 15.5479C19.9497 14.8904 19.4801 14.3562 18.9021 14.3562ZM13.718 18.4041C14.086 19.2697 15.224 20.1096 16.59 20.1096C17.956 20.1096 19.1121 19.2697 19.4801 18.4041C18.8118 18.8947 17.7573 19.226 16.59 19.226C15.4227 19.226 14.3863 18.8947 13.718 18.4041Z"
    fill="#2D383F" />
</svg>
