<svg xmlns="http://www.w3.org/2000/svg" viewBox="0 0 22 22" fill="none">
  <path fill="#2D383F"
    d="m21.392 15.913-4.318-4.94h2.086a.441.441 0 0 0 .349-.71l-3.467-4.556h1.764a.441.441 0 0 0 .33-.732L13.895.149a.441.441 0 0 0-.662 0L8.985 4.97a.441.441 0 0 0 .33.737h1.787L10.034 7.1 7.176 3.85a.441.441 0 0 0-.661 0l-3.63 4.124a.441.441 0 0 0 .33.732h1.399L1.71 12.504a.441.441 0 0 0 .349.701h1.632L.106 17.329a.441.441 0 0 0 .33.728h4.879v3.087c0 .473.383.856.856.856h1.345a.856.856 0 0 0 .86-.851v-3.092h3.66v3.087c0 .473.384.856.857.856h1.345a.856.856 0 0 0 .856-.856v-4.499h5.967a.441.441 0 0 0 .331-.732ZM7.494 21.118l-1.297.026-.026-3.087h1.323v3.06Zm4.543-3.943H1.407l3.608-4.116a.441.441 0 0 0-.34-.736h-1.72l2.902-3.798a.441.441 0 0 0-.348-.71H4.186l2.646-3.012L9.48 7.806l-1.862 2.462a.441.441 0 0 0 .349.71h2.09l-4.318 4.94a.441.441 0 0 0 .331.732h5.968v.525Zm2.174 3.934-1.292.035-.026-4.499h1.323l-.005 4.464Zm.027-5.346H7.04l4.318-4.94a.441.441 0 0 0-.331-.732H8.86l3.485-4.56a.441.441 0 0 0-.349-.706h-1.69l3.274-3.714 3.255 3.714h-1.703a.441.441 0 0 0-.348.71l3.462 4.556H16.1a.441.441 0 0 0-.33.732l4.317 4.94h-5.848Z" />
  <defs>
    <clipPath>
      <path fill="#fff" d="M0 0h22v22H0z" />
    </clipPath>
  </defs>
</svg>
