<svg viewBox="0 0 22 22" fill="none" xmlns="http://www.w3.org/2000/svg">
  <g clip-path="url(#clip0_6421_1036)">
    <rect width="22" height="22" fill="white" />
    <path
      d="M21.6405 15.9132L17.3224 10.9732H19.4087C19.6523 10.9726 19.8493 10.7747 19.8487 10.5311C19.8485 10.4341 19.8163 10.3399 19.7572 10.2631L16.2903 5.70683H18.0546C18.2982 5.7065 18.4954 5.50879 18.4951 5.26521C18.495 5.15825 18.456 5.05498 18.3854 4.97465L14.1423 0.149338C13.9812 -0.0333752 13.7025 -0.0508527 13.5198 0.110304C13.5059 0.122488 13.4929 0.135555 13.4807 0.149338L9.23321 4.97024C9.07001 5.15108 9.08429 5.43 9.26507 5.5932C9.347 5.66713 9.45363 5.70766 9.56401 5.70683H11.3503L10.283 7.10061L7.42482 3.84992C7.26371 3.66721 6.98496 3.64973 6.80224 3.81089C6.78841 3.82307 6.77539 3.83614 6.76321 3.84992L3.1332 7.97393C2.97243 8.15692 2.99045 8.43563 3.17344 8.5964C3.25377 8.66697 3.35704 8.70595 3.464 8.70611H4.86219L1.95995 12.5037C1.81621 12.7004 1.85905 12.9763 2.05572 13.1201C2.12915 13.1738 2.21742 13.2035 2.30839 13.205H3.94036L0.35445 17.329C0.196106 17.5141 0.217774 17.7926 0.402913 17.951C0.481644 18.0183 0.581657 18.0558 0.685254 18.0568H5.5635V21.1443C5.5635 21.6169 5.94662 22 6.41917 22H7.76444C8.23699 22.0024 8.6221 21.6213 8.62453 21.1487C8.62453 21.1472 8.62453 21.1458 8.62453 21.1443V18.0568H12.2854V21.1443C12.2854 21.6169 12.6685 22 13.1411 22H14.4864C14.9589 22 15.342 21.6169 15.342 21.1443V16.6454H21.3097C21.5533 16.6451 21.7505 16.4473 21.7502 16.2038C21.7501 16.0968 21.7111 15.9935 21.6405 15.9132ZM7.74239 21.1178L6.44564 21.1443L6.41917 18.0568H7.74239V21.1178ZM12.2854 17.1747H1.65561L5.26357 13.0595C5.42687 12.8788 5.41271 12.5998 5.23198 12.4365C5.14773 12.3604 5.03741 12.3198 4.92394 12.3229H3.20377L6.10601 8.52527C6.2546 8.33225 6.2186 8.05531 6.02557 7.90673C5.94872 7.84757 5.85455 7.81537 5.75757 7.81515H4.43436L7.08078 4.80264L9.72721 7.80633L7.86589 10.2675C7.7173 10.4605 7.7533 10.7375 7.94633 10.886C8.02318 10.9452 8.11735 10.9774 8.21433 10.9776H10.305L5.98692 15.9176C5.82615 16.1006 5.84418 16.3793 6.02717 16.5401C6.1075 16.6107 6.21077 16.6496 6.31773 16.6498H12.2854V17.1747V17.1747ZM14.4599 21.109L13.1676 21.1443L13.1411 16.6454H14.4643L14.4599 21.109ZM14.4864 15.7632H7.28808L11.6062 10.8233C11.7669 10.6403 11.7489 10.3616 11.5659 10.2008C11.4856 10.1302 11.3823 10.0912 11.2754 10.0911H9.10971L12.5942 5.5304C12.7403 5.33556 12.7008 5.05906 12.506 4.9129C12.4309 4.85656 12.3397 4.82563 12.2457 4.82469H10.5564L13.8292 1.11087L17.0843 4.82469H15.3817C15.1382 4.8253 14.9412 5.02323 14.9417 5.26681C14.9419 5.36379 14.9741 5.45796 15.0333 5.53481L18.4957 10.0911H16.3477C16.1041 10.0914 15.9069 10.2891 15.9072 10.5327C15.9073 10.6397 15.9463 10.7429 16.0169 10.8233L20.335 15.7632H14.4864Z"
      fill="#2D383F" />
  </g>
  <defs>
    <clipPath id="clip0_6421_1036">
      <rect width="22" height="22" fill="white" />
    </clipPath>
  </defs>
</svg>
