<svg xmlns="http://www.w3.org/2000/svg" viewBox="0 0 17 17" fill="none">
  <path fill="#030A1A"
    d="M9.723 11.052c.443-.143 1.01.944 1.613 1.36.453.316.8.248.8.248l1.608-.023s.84-.052.443-.72c-.033-.055-.233-.495-1.197-1.4-1.008-.945-.872-.792.342-2.427.74-.997 1.035-1.606.943-1.866-.09-.25-.632-.184-.632-.184l-1.812.012c-.177 0-.326.055-.394.239-.002.002-.288.771-.67 1.425C9.962 9.1 9.64 9.174 9.508 9.087c-.307-.2-.23-.804-.23-1.233 0-1.342.2-1.9-.391-2.045-.198-.049-.342-.08-.847-.085-.644-.01-1.192 0-1.502.153-.206.103-.364.33-.268.342.12.017.39.074.535.272.186.255.18.828.18.828s.106 1.58-.25 1.775c-.245.135-.579-.14-1.298-1.396a11.75 11.75 0 0 1-.645-1.353s-.053-.132-.15-.204a.745.745 0 0 0-.278-.113l-1.72.01s-.258.008-.353.122c-.085.101-.007.31-.007.31s1.347 3.186 2.872 4.79c1.398 1.474 2.988 1.376 2.988 1.376h.72s.217-.025.328-.144c.104-.111.099-.32.099-.32s-.014-.977.433-1.12Z" />
</svg>
