<svg viewBox="0 0 32 30" fill="none" xmlns="http://www.w3.org/2000/svg">
  <path
    d="M24.256 19.0274C24.2104 18.9564 23.9281 18.3866 22.5697 17.2153C21.1476 15.9888 21.3386 16.188 23.0515 14.0673C24.0947 12.7757 24.5118 11.987 24.3813 11.6498C24.2571 11.3284 23.4898 11.4132 23.4898 11.4132L20.9385 11.427C20.9385 11.427 20.7496 11.4033 20.6084 11.4812C20.4715 11.5581 20.3835 11.7356 20.3835 11.7356C20.3835 11.7356 19.9791 12.7353 19.44 13.5852C18.3034 15.3785 17.8481 15.4732 17.6623 15.3618C17.2304 15.1025 17.3387 14.3187 17.3387 13.7626C17.3387 12.0245 17.622 11.2998 16.7857 11.1125C16.5077 11.0504 16.3039 11.009 15.5939 11.0021C14.6833 10.9932 13.9118 11.005 13.4756 11.2032C13.1848 11.3353 12.9609 11.6301 13.0978 11.6468C13.2665 11.6676 13.6486 11.7425 13.8513 11.9988C14.1134 12.3291 14.1039 13.0725 14.1039 13.0725C14.1039 13.0725 14.2546 15.1183 13.7526 15.3726C13.4077 15.5471 12.9354 15.1912 11.9219 13.5635C11.4029 12.7304 11.0103 11.8085 11.0103 11.8085C11.0103 11.8085 10.9349 11.637 10.8001 11.5453C10.6367 11.4339 10.4075 11.3984 10.4075 11.3984L7.98138 11.4122C7.98138 11.4122 7.61737 11.4221 7.48365 11.569C7.36478 11.7001 7.47409 11.9702 7.47409 11.9702C7.47409 11.9702 9.37378 16.0983 11.5239 18.1795C13.4968 20.0873 15.7361 19.9621 15.7361 19.9621H16.7507C16.7507 19.9621 17.0574 19.9305 17.2134 19.7738C17.3578 19.6298 17.3525 19.3597 17.3525 19.3597C17.3525 19.3597 17.3323 18.0948 17.9648 17.9084C18.5878 17.725 19.388 19.131 20.2359 19.6722C20.8769 20.0814 21.3641 19.9917 21.3641 19.9917L23.632 19.9621C23.632 19.9621 24.8185 19.8941 24.256 19.0274Z"
    fill="#2D383F" />
</svg>
